<?xml version="1.0" standalone="no"?>
<!DOCTYPE svg PUBLIC "-//W3C//DTD SVG 20010904//EN"
 "http://www.w3.org/TR/2001/REC-SVG-20010904/DTD/svg10.dtd">
<svg version="1.0" xmlns="http://www.w3.org/2000/svg"
 width="692.000000pt" height="695.000000pt" viewBox="0 0 692.000000 695.000000"
 preserveAspectRatio="xMidYMid meet">
<metadata>
Created by potrace 1.16, written by Peter Selinger 2001-2019
</metadata>
<g transform="translate(0.000000,695.000000) scale(0.100000,-0.100000)"
fill="#000000" stroke="none">
<path d="M3345 5960 c-274 -24 -578 -155 -784 -336 -68 -61 -188 -198 -237
-271 -95 -143 -172 -326 -209 -493 -25 -116 -31 -375 -11 -494 34 -197 118
-401 245 -590 56 -83 1113 -1286 1131 -1286 4 0 196 213 427 473 589 663 633
714 684 787 185 260 279 539 279 825 0 212 -43 400 -134 591 -67 140 -104 197
-201 313 -286 340 -733 521 -1190 481z m325 -205 c507 -83 912 -491 991 -999
19 -119 6 -363 -24 -479 -56 -212 -159 -390 -316 -547 -232 -231 -518 -350
-845 -350 -327 0 -625 127 -853 363 -196 203 -304 437 -333 720 -23 217 16
429 115 633 230 474 746 743 1265 659z"/>
<path d="M3170 5545 c-36 -6 -83 -20 -105 -29 -30 -13 -54 -16 -97 -11 -39 4
-58 2 -58 -5 0 -6 -16 -26 -36 -44 -19 -17 -41 -50 -48 -72 -8 -23 -26 -48
-46 -61 -18 -13 -54 -58 -81 -100 -47 -75 -49 -81 -47 -143 1 -36 -3 -94 -9
-130 -11 -61 -10 -66 10 -83 12 -10 42 -49 67 -85 25 -37 61 -77 80 -90 30
-21 42 -23 90 -17 30 4 72 9 92 11 20 2 54 10 74 19 57 24 99 20 124 -12 15
-20 30 -27 58 -27 51 -1 68 -36 53 -107 -11 -52 -6 -74 23 -98 25 -21 76 -166
76 -215 0 -24 -9 -63 -20 -87 -27 -60 -25 -86 14 -187 18 -48 37 -109 41 -135
3 -27 20 -69 36 -95 16 -25 29 -60 29 -77 0 -50 24 -75 74 -75 114 0 164 35
291 205 67 90 67 90 61 142 -5 45 -3 55 18 80 14 16 45 42 71 58 25 16 48 40
51 52 8 31 -4 127 -22 168 -36 87 -4 158 119 270 49 44 90 93 120 144 52 87
60 110 48 130 -8 12 -16 12 -53 -2 -52 -20 -108 -22 -130 -4 -9 6 -21 28 -25
47 -6 24 -21 42 -46 59 -27 18 -46 45 -77 110 -23 47 -46 93 -50 101 -71 121
-101 185 -97 206 2 14 0 27 -6 31 -6 3 -48 7 -93 7 -69 1 -87 5 -113 24 -43
32 -68 28 -92 -13 -25 -42 -44 -44 -94 -9 -21 14 -59 33 -84 43 -44 16 -46 19
-46 56 0 70 -14 75 -145 50z"/>
<path d="M4270 4184 c-50 -17 -88 -38 -99 -56 -7 -11 -15 -49 -17 -85 -2 -35
-11 -77 -19 -93 -8 -16 -15 -40 -15 -53 0 -27 28 -57 53 -57 17 0 49 54 61
105 4 17 23 65 42 108 47 109 46 147 -6 131z"/>
<path d="M4949 2035 c-37 -20 -51 -59 -57 -152 -4 -79 -6 -83 -28 -83 -21 0
-24 -5 -24 -35 0 -31 3 -35 25 -35 l25 0 0 -115 0 -115 40 0 40 0 0 115 0 115
45 0 c45 0 45 0 45 35 0 35 0 35 -45 35 l-45 0 0 75 c0 63 3 78 21 96 15 15
28 19 45 15 19 -5 27 -1 36 19 10 22 9 28 -3 36 -21 13 -90 10 -120 -6z"/>
<path d="M2940 1767 l0 -267 40 0 40 0 0 172 0 173 148 -145 c81 -80 164 -161
185 -180 l37 -34 0 262 0 262 -40 0 -40 0 0 -172 0 -173 -185 185 -185 185 0
-268z"/>
<path d="M4550 1984 c-93 -214 -200 -471 -200 -477 0 -4 16 -7 36 -7 34 0 37
3 62 60 l27 61 94 -3 95 -3 22 -55 c22 -55 22 -55 69 -58 42 -3 47 -1 41 15
-23 62 -211 500 -217 507 -5 5 -18 -13 -29 -40z"/>
<path d="M869 2007 c-50 -19 -88 -50 -121 -99 -34 -49 -41 -88 -36 -177 7
-131 95 -221 224 -229 69 -5 146 12 165 34 9 11 8 21 -1 44 -15 35 -12 34 -51
14 -39 -19 -128 -20 -166 -1 -78 41 -115 152 -79 238 15 36 56 79 93 98 31 16
99 14 134 -5 38 -19 48 -16 65 24 14 33 14 33 -24 49 -51 22 -158 27 -203 10z"/>
<path d="M3920 1865 c0 -63 -1 -65 -25 -65 -21 0 -25 -5 -25 -30 0 -25 4 -30
25 -30 l25 0 0 -120 0 -120 40 0 40 0 0 120 0 120 40 0 c38 0 40 2 40 30 0 28
-2 30 -40 30 l-40 0 0 65 0 65 -40 0 -40 0 0 -65z"/>
<path d="M1280 1803 c-54 -21 -90 -84 -90 -156 0 -60 27 -112 70 -134 41 -21
123 -16 154 8 l26 20 0 -20 c0 -18 6 -21 40 -21 l40 0 0 150 0 150 -35 0 c-24
0 -35 -5 -35 -15 0 -19 -9 -19 -32 2 -19 17 -110 28 -138 16z m119 -68 c34
-17 41 -33 41 -90 0 -35 -5 -48 -26 -64 -61 -48 -146 -5 -146 74 0 74 66 114
131 80z"/>
<path d="M1758 1785 c-20 -13 -38 -30 -41 -37 -3 -7 -8 2 -12 20 -7 28 -11 32
-41 32 l-34 0 0 -150 0 -150 40 0 40 0 0 78 c0 93 21 137 72 150 29 7 33 13
36 45 4 45 -8 47 -60 12z"/>
<path d="M1965 1796 c-117 -51 -126 -224 -15 -281 34 -18 114 -20 158 -4 31
11 31 11 16 41 -10 20 -20 28 -31 24 -40 -16 -66 -17 -94 -6 -16 7 -28 17 -26
23 2 6 48 26 102 44 54 18 103 37 108 42 15 15 -25 83 -63 109 -38 25 -107 29
-155 8z"/>
<path d="M2324 1785 c-55 -33 -78 -81 -72 -152 4 -46 10 -60 41 -91 32 -31 43
-36 97 -40 35 -3 72 1 90 8 35 14 33 11 18 45 -9 21 -16 25 -32 19 -34 -12
-93 -9 -110 6 -9 7 -13 16 -9 20 4 4 53 22 108 40 55 18 103 35 107 39 14 12
-33 90 -67 111 -46 29 -118 27 -171 -5z"/>
<path d="M2795 1798 c-11 -6 -32 -22 -47 -36 l-28 -26 0 32 c0 30 -2 32 -35
32 l-35 0 0 -150 0 -150 35 0 35 0 0 65 c0 99 30 154 93 169 23 5 27 11 27 41
0 37 -10 42 -45 23z"/>
<path d="M3582 1794 c-113 -58 -118 -226 -8 -278 40 -19 124 -21 161 -4 30 13
31 19 8 47 -16 19 -22 20 -54 10 -28 -9 -42 -9 -64 2 -15 8 -27 18 -27 24 0 5
47 25 104 44 57 18 105 35 107 37 10 9 -13 59 -43 91 -30 33 -39 37 -92 40
-41 3 -69 -1 -92 -13z"/>
<path d="M5277 1785 c-20 -14 -37 -30 -37 -35 0 -6 -4 -10 -10 -10 -5 0 -10
14 -10 30 0 28 -3 30 -35 30 l-35 0 0 -150 0 -150 40 0 40 0 0 78 c0 94 13
121 68 147 37 17 42 23 42 52 0 40 -13 42 -63 8z"/>
<path d="M5702 1800 c-64 -15 -112 -80 -112 -150 0 -47 17 -85 55 -120 24 -22
35 -25 104 -25 52 0 84 5 95 14 15 13 15 16 -6 38 -15 16 -25 20 -32 13 -14
-14 -62 -13 -89 2 -34 18 -46 39 -47 81 0 53 35 87 89 87 22 0 43 -4 46 -10
10 -16 22 -12 39 15 15 23 15 25 -6 39 -30 19 -95 26 -136 16z"/>
<path d="M5989 1787 c-89 -59 -93 -214 -7 -267 45 -27 126 -27 161 0 14 11 28
20 31 20 3 0 6 -9 6 -20 0 -16 7 -20 35 -20 l35 0 0 150 0 150 -35 0 c-24 0
-35 -5 -35 -15 0 -20 -7 -19 -37 5 -36 28 -110 27 -154 -3z m169 -72 c32 -38
30 -89 -7 -126 -37 -37 -79 -38 -120 -3 -26 21 -31 33 -31 69 0 36 5 48 32 70
26 22 39 26 67 21 21 -3 45 -16 59 -31z"/>
<path d="M5428 1688 c-2 -62 -2 -130 0 -150 3 -36 5 -38 38 -38 l34 0 0 150 0
150 -34 0 -35 0 -3 -112z"/>
</g>
</svg>
